<svg id="eCUxpGgPFNl1" xmlns="http://www.w3.org/2000/svg" xmlns:xlink="http://www.w3.org/1999/xlink" viewBox="0 0 192 192" shape-rendering="geometricPrecision" text-rendering="geometricPrecision"><style><![CDATA[#eCUxpGgPFNl4_tr {animation: eCUxpGgPFNl4_tr__tr 3000ms linear infinite normal forwards}@keyframes eCUxpGgPFNl4_tr__tr { 0% {transform: translate(95.999996px,96px) rotate(0deg);animation-timing-function: cubic-bezier(0.470000,0,0.745000,0.715000)} 23.333333% {transform: translate(95.999996px,96px) rotate(180deg);animation-timing-function: cubic-bezier(0.390000,0.575000,0.565000,1)} 50% {transform: translate(95.999996px,96px) rotate(360deg)} 100% {transform: translate(95.999996px,96px) rotate(360deg)}} #eCUxpGgPFNl4_ts {animation: eCUxpGgPFNl4_ts__ts 3000ms linear infinite normal forwards}@keyframes eCUxpGgPFNl4_ts__ts { 0% {transform: scale(1,1)} 50% {transform: scale(1,1);animation-timing-function: cubic-bezier(0.600000,-0.280000,0.735000,0.045000)} 76.666667% {transform: scale(0,0);animation-timing-function: cubic-bezier(0.175000,0.885000,0.320000,1.275000)} 100% {transform: scale(1,1)}}]]></style><g id="eCUxpGgPFNl2"><ellipse id="eCUxpGgPFNl3" rx="80" ry="80" transform="matrix(1 0 0 1 96 96)" fill="none" stroke="rgb(255,255,255)" stroke-width="5"/><g id="eCUxpGgPFNl4_tr" transform="translate(95.999996,96) rotate(0)"><g id="eCUxpGgPFNl4_ts" transform="scale(1,1)"><g id="eCUxpGgPFNl4" transform="translate(-95.999996,-96)"><path id="eCUxpGgPFNl5" d="M156.074870,86.804580C156.074870,83.460790,153.421720,80.860070,150.010530,80.860070C146.599340,80.860070,143.946190,83.460790,143.946190,86.804580C143.946190,88.104940,144.325210,89.219540,145.083250,90.334130C137.313310,100.551260,133.523100,101.480090,132.007020,101.108560C130.111910,100.551260,128.974850,97.393240,128.406320,92.749090C131.059470,92.191790,133.144090,89.776830,133.144090,86.990340C133.144090,83.646550,130.490940,81.045830,127.079750,81.045830C123.668560,81.045830,121.015410,83.646550,121.015410,86.990340C121.015410,88.476470,121.583940,89.776830,122.531500,90.891430C119.688840,93.863690,117.035690,95.164050,114.572050,94.606750C109.644770,93.492150,104.527990,85.504210,100.358750,72.129060C102.443370,70.642930,103.769940,68.413740,103.769940,65.627250C103.769940,61.354630,100.169240,57.825080,95.810490,57.825080C91.451740,57.825080,87.851040,61.354630,87.851040,65.627250C87.851040,68.413740,89.367130,70.828700,91.641250,72.129060C87.472020,85.504220,82.355230,93.492160,77.427950,94.606750C74.964310,95.164050,72.311160,93.863690,69.468500,90.891430C70.416050,89.776830,70.984590,88.476470,70.984590,86.990340C70.984590,83.646550,68.331440,81.045830,64.920250,81.045830C61.509060,81.045830,58.855910,83.646550,58.855910,86.990340C58.855910,89.776830,60.751020,92.191790,63.593680,92.749090C63.025150,97.579010,61.888080,100.551260,59.992980,101.108560C58.666410,101.480090,55.065700,101.108560,46.916750,90.334130C47.674790,89.405300,48.053810,88.104940,48.053810,86.804580C48.053810,83.460790,45.400660,80.860070,41.989470,80.860070C38.578280,80.860070,35.925130,83.460790,35.925130,86.804580C35.925130,89.962600,38.578280,92.563330,41.610450,92.749090C43.316050,97.021710,45.400660,102.594690,46.916750,107.238840C47.106260,107.981900,47.864300,108.353440,48.622350,108.167670C49.380390,107.981900,49.759410,107.238840,49.569900,106.495780C48.053810,102.037390,46.158710,96.650180,44.453110,92.377560C44.453110,92.377560,44.642620,92.377560,44.642620,92.377560C51.465000,101.294330,56.771300,105.009650,60.751020,103.895050C64.541230,102.780450,66.057320,97.579000,66.436340,92.749090C66.625850,92.749090,67.004870,92.563320,67.194380,92.563320C70.795080,96.464410,74.395780,98.136300,77.996490,97.393240C84.250340,96.092880,89.746150,88.104940,94.294400,73.243650C94.483910,73.243650,94.483910,73.243650,94.673420,73.243650C95.052440,73.243650,95.431460,73.429420,95.810480,73.429420C95.810480,73.429420,95.810480,73.429420,95.810480,73.429420C95.999990,73.429420,96.189500,73.429420,96.189500,73.429420C96.568520,73.429420,97.137050,73.429420,97.516070,73.243650C97.516070,73.243650,97.516070,73.243650,97.516070,73.243650C102.064330,87.919170,107.560130,96.092870,113.813980,97.393240C117.414680,98.136300,121.015380,96.464410,124.616090,92.563320C124.805600,92.749090,125.184620,92.749090,125.374130,92.749090C125.753150,97.393240,127.269240,102.780460,131.059450,103.895050C135.039170,105.009650,140.345470,101.294330,147.167850,92.377560C147.167850,92.377560,147.357360,92.377560,147.357360,92.377560C147.357360,92.377560,147.357360,92.377560,147.357360,92.377560C146.030790,96.092880,143.756660,101.851630,142.240570,106.495780C142.051060,107.238840,142.430080,107.981910,143.188120,108.167670C143.377630,108.167670,143.567140,108.167670,143.567140,108.167670C144.135670,108.167670,144.704200,107.796140,144.893710,107.238840C146.409800,102.408920,148.683920,96.464410,150.200010,92.749090C153.421690,92.563320,156.074840,89.962600,156.074840,86.804580ZM38.578280,86.804580C38.578280,85.132690,40.094370,83.646560,41.799960,83.646560C43.505560,83.646560,45.021640,85.132690,45.021640,86.804580C45.021640,87.733410,44.642620,88.476470,43.884580,89.033770C43.884580,89.033770,43.884580,89.033770,43.884580,89.033770C43.505560,89.405300,42.937030,89.776830,42.178980,89.776830C42.178980,89.776830,42.178980,89.776830,42.178980,89.776830C41.989470,89.776830,41.799960,89.776830,41.799960,89.776830C39.904850,89.962600,38.578280,88.476470,38.578280,86.804570ZM61.509070,86.804580C61.509070,85.132690,63.025160,83.646560,64.730750,83.646560C66.436340,83.646560,67.952430,85.132690,67.952430,86.804580C67.952430,87.919180,67.383900,88.848010,66.625860,89.405300C66.436350,89.591070,66.057330,89.591070,65.867820,89.776830C65.867820,89.776830,65.867820,89.776830,65.678310,89.776830C65.488800,89.776830,65.109780,89.962600,64.920270,89.962600C64.920270,89.962600,64.920270,89.962600,64.920270,89.962600C64.920270,89.962600,64.920270,89.962600,64.920270,89.962600C63.025160,89.962600,61.509080,88.476470,61.509080,86.804580ZM95.620980,60.425800C98.463640,60.425800,100.737770,62.654990,100.737770,65.441480C100.737770,67.484910,99.600710,69.156800,97.895110,69.899870C97.895110,69.899870,97.895110,69.899870,97.895110,69.899870C97.326580,70.271400,96.568540,70.271400,96,70.457170C96,70.457170,96,70.457170,95.810490,70.457170C95.620980,70.457170,95.241960,70.457170,95.052450,70.457170C94.862940,70.457170,94.862940,70.457170,94.673430,70.457170C94.294410,70.457170,94.104900,70.271400,93.915390,70.271400C92.020280,69.528340,90.693710,67.670680,90.693710,65.627250C90.504200,62.654990,92.778330,60.425800,95.620990,60.425800ZM126.890240,83.646560C128.595840,83.646560,130.111920,85.132690,130.111920,86.804580C130.111920,88.476470,128.595830,89.962600,126.890240,89.962600C126.890240,89.962600,126.890240,89.962600,126.890240,89.962600C126.890240,89.962600,126.890240,89.962600,126.890240,89.962600C126.511220,89.962600,126.321710,89.962600,126.132200,89.776830C126.132200,89.776830,126.132200,89.776830,125.942690,89.776830C125.753180,89.776830,125.374160,89.591060,125.184650,89.405300C124.426610,88.848000,123.858080,87.919170,123.858080,86.804580C123.668570,85.132690,125.184650,83.646560,126.890250,83.646560ZM150.010540,89.962610C149.821030,89.962610,149.631520,89.962610,149.631520,89.962610C149.631520,89.962610,149.631520,89.962610,149.631520,89.962610C149.062990,89.962610,148.494460,89.591080,147.925920,89.219550C147.925920,89.219550,147.925920,89.219550,147.925920,89.219550C147.357390,88.662250,146.788860,87.733420,146.788860,86.990360C146.788860,85.318470,148.304950,83.832340,150.010540,83.832340C151.716140,83.832340,153.232220,85.318470,153.232220,86.990360C153.232220,88.476490,151.716130,89.962620,150.010540,89.962620Z" fill="rgb(255,191,0)" stroke="none" stroke-width="1"/><path id="eCUxpGgPFNl6" d="M142.051080,112.626060C111.350360,108.539210,80.081100,108.539210,49.380380,112.626060C48.622340,112.626060,48.243320,113.369120,48.243320,113.926420L48.243320,128.230410C48.243320,129.902300,49.380380,131.759960,63.972700,133.060330C72.311170,133.803390,83.681810,134.174930,95.810490,134.174930C107.939170,134.174930,119.309810,133.803400,127.648280,133.060330C142.051090,131.759970,143.377660,130.088070,143.377660,128.230410L143.377660,113.926420C143.188150,113.183360,142.619620,112.626060,142.051090,112.626060ZM50.896460,115.226780C80.649630,111.325690,110.592310,111.325690,140.345480,115.226780L140.345480,126.744270C110.592310,123.028950,80.649630,123.028950,50.896460,126.744270L50.896460,115.226780ZM95.620970,131.574190C75.911860,131.574190,61.319540,130.459590,54.686670,129.345000C81.976200,126.186980,109.455240,126.186980,136.744780,129.345000C129.922400,130.459600,115.330080,131.574190,95.620970,131.574190Z" fill="rgb(255,191,0)" stroke="none" stroke-width="1"/></g></g></g></g></svg>