<svg width="192" height="192" xmlns="http://www.w3.org/2000/svg" xml:space="preserve" version="1.1">

 <g>
  <title>Layer 1</title>
  <ellipse stroke="#ffffff" stroke-width="5" ry="80" rx="80" id="svg_4" cy="96" cx="96" fill="none"/>
  <g stroke="null" id="svg_1">
   <path stroke="null" id="svg_2" fill="#ffbf00" d="m156.07487,86.80458c0,-3.34379 -2.65315,-5.94451 -6.06434,-5.94451c-3.41119,0 -6.06434,2.60072 -6.06434,5.94451c0,1.30036 0.37902,2.41496 1.13706,3.52955c-7.76994,10.21713 -11.56015,11.14596 -13.07623,10.77443c-1.89511,-0.5573 -3.03217,-3.71532 -3.6007,-8.35947c2.65315,-0.5573 4.73777,-2.97226 4.73777,-5.75875c0,-3.34379 -2.65315,-5.94451 -6.06434,-5.94451c-3.41119,0 -6.06434,2.60072 -6.06434,5.94451c0,1.48613 0.56853,2.78649 1.51609,3.90109c-2.84266,2.97226 -5.49581,4.27262 -7.95945,3.71532c-4.92728,-1.1146 -10.04406,-9.10254 -14.2133,-22.47769c2.08462,-1.48613 3.41119,-3.71532 3.41119,-6.50181c0,-4.27262 -3.6007,-7.80217 -7.95945,-7.80217s-7.95945,3.52955 -7.95945,7.80217c0,2.78649 1.51609,5.20145 3.79021,6.50181c-4.16923,13.37516 -9.28602,21.3631 -14.2133,22.47769c-2.46364,0.5573 -5.11679,-0.74306 -7.95945,-3.71532c0.94755,-1.1146 1.51609,-2.41496 1.51609,-3.90109c0,-3.34379 -2.65315,-5.94451 -6.06434,-5.94451s-6.06434,2.60072 -6.06434,5.94451c0,2.78649 1.89511,5.20145 4.73777,5.75875c-0.56853,4.82992 -1.7056,7.80217 -3.6007,8.35947c-1.32657,0.37153 -4.92728,0 -13.07623,-10.77443c0.75804,-0.92883 1.13706,-2.22919 1.13706,-3.52955c0,-3.34379 -2.65315,-5.94451 -6.06434,-5.94451c-3.41119,0 -6.06434,2.60072 -6.06434,5.94451c0,3.15802 2.65315,5.75875 5.68532,5.94451c1.7056,4.27262 3.79021,9.8456 5.3063,14.48975c0.18951,0.74306 0.94755,1.1146 1.7056,0.92883c0.75804,-0.18577 1.13706,-0.92883 0.94755,-1.67189c-1.51609,-4.45839 -3.41119,-9.8456 -5.11679,-14.11822c0,0 0.18951,0 0.18951,0c6.82238,8.91677 12.12868,12.63209 16.1084,11.51749c3.79021,-1.1146 5.3063,-6.31605 5.68532,-11.14596c0.18951,0 0.56853,-0.18577 0.75804,-0.18577c3.6007,3.90109 7.2014,5.57298 10.80211,4.82992c6.25385,-1.30036 11.74966,-9.2883 16.29791,-24.14959c0.18951,0 0.18951,0 0.37902,0c0.37902,0 0.75804,0.18577 1.13706,0.18577c0,0 0,0 0,0c0.18951,0 0.37902,0 0.37902,0c0.37902,0 0.94755,0 1.32657,-0.18577c0,0 0,0 0,0c4.54826,14.67552 10.04406,22.84922 16.29791,24.14959c3.6007,0.74306 7.2014,-0.92883 10.80211,-4.82992c0.18951,0.18577 0.56853,0.18577 0.75804,0.18577c0.37902,4.64415 1.89511,10.03137 5.68532,11.14596c3.97972,1.1146 9.28602,-2.60072 16.1084,-11.51749c0,0 0.18951,0 0.18951,0c0,0 0,0 0,0c-1.32657,3.71532 -3.6007,9.47407 -5.11679,14.11822c-0.18951,0.74306 0.18951,1.48613 0.94755,1.67189c0.18951,0 0.37902,0 0.37902,0c0.56853,0 1.13706,-0.37153 1.32657,-0.92883c1.51609,-4.82992 3.79021,-10.77443 5.3063,-14.48975c3.22168,-0.18577 5.87483,-2.78649 5.87483,-5.94451zm-117.49659,0c0,-1.67189 1.51609,-3.15802 3.22168,-3.15802c1.7056,0 3.22168,1.48613 3.22168,3.15802c0,0.92883 -0.37902,1.67189 -1.13706,2.22919c0,0 0,0 0,0c-0.37902,0.37153 -0.94755,0.74306 -1.7056,0.74306c0,0 0,0 0,0c-0.18951,0 -0.37902,0 -0.37902,0c-1.89511,0.18577 -3.22168,-1.30036 -3.22168,-2.97226zm22.93079,0c0,-1.67189 1.51609,-3.15802 3.22168,-3.15802s3.22168,1.48613 3.22168,3.15802c0,1.1146 -0.56853,2.04343 -1.32657,2.60072c-0.18951,0.18577 -0.56853,0.18577 -0.75804,0.37153c0,0 0,0 -0.18951,0c-0.18951,0 -0.56853,0.18577 -0.75804,0.18577c0,0 0,0 0,0c0,0 0,0 0,0c-1.89511,0 -3.41119,-1.48613 -3.41119,-3.15802zm34.11191,-26.37878c2.84266,0 5.11679,2.22919 5.11679,5.01568c0,2.04343 -1.13706,3.71532 -2.84266,4.45839c0,0 0,0 0,0c-0.56853,0.37153 -1.32657,0.37153 -1.89511,0.5573c0,0 0,0 -0.18951,0c-0.18951,0 -0.56853,0 -0.75804,0c-0.18951,0 -0.18951,0 -0.37902,0c-0.37902,0 -0.56853,-0.18577 -0.75804,-0.18577c-1.89511,-0.74306 -3.22168,-2.60072 -3.22168,-4.64415c-0.18951,-2.97226 2.08462,-5.20145 4.92728,-5.20145zm31.26926,23.22076c1.7056,0 3.22168,1.48613 3.22168,3.15802c0,1.67189 -1.51609,3.15802 -3.22168,3.15802c0,0 0,0 0,0c0,0 0,0 0,0c-0.37902,0 -0.56853,0 -0.75804,-0.18577c0,0 0,0 -0.18951,0c-0.18951,0 -0.56853,-0.18577 -0.75804,-0.37153c-0.75804,-0.5573 -1.32657,-1.48613 -1.32657,-2.60072c-0.18951,-1.67189 1.32657,-3.15802 3.03217,-3.15802zm23.1203,6.31605c-0.18951,0 -0.37902,0 -0.37902,0c0,0 0,0 0,0c-0.56853,0 -1.13706,-0.37153 -1.7056,-0.74306c0,0 0,0 0,0c-0.56853,-0.5573 -1.13706,-1.48613 -1.13706,-2.22919c0,-1.67189 1.51609,-3.15802 3.22168,-3.15802c1.7056,0 3.22168,1.48613 3.22168,3.15802c0,1.48613 -1.51609,2.97226 -3.22168,2.97226z" class="st0"/>
   <path stroke="null" id="svg_3" fill="#ffbf00" d="m142.05108,112.62606c-30.70072,-4.08685 -61.96998,-4.08685 -92.6707,0c-0.75804,0 -1.13706,0.74306 -1.13706,1.30036l0,14.30399c0,1.67189 1.13706,3.52955 15.72938,4.82992c8.33847,0.74306 19.70911,1.1146 31.83779,1.1146s23.49932,-0.37153 31.83779,-1.1146c14.40281,-1.30036 15.72938,-2.97226 15.72938,-4.82992l0,-14.30399c-0.18951,-0.74306 -0.75804,-1.30036 -1.32657,-1.30036zm-91.15462,2.60072c29.75317,-3.90109 59.69585,-3.90109 89.44902,0l0,11.51749c-29.75317,-3.71532 -59.69585,-3.71532 -89.44902,0l0,-11.51749zm44.72451,16.34741c-19.70911,0 -34.30143,-1.1146 -40.9343,-2.22919c27.28953,-3.15802 54.76857,-3.15802 82.05811,0c-6.82238,1.1146 -21.4147,2.22919 -41.12381,2.22919z" class="st0"/>
  </g>
 </g>
</svg>